<mxfile host="app.diagrams.net" agent="Mozilla/5.0 (Windows NT 10.0; Win64; x64; rv:132.0) Gecko/20100101 Firefox/132.0" version="24.8.4" pages="2">
  <diagram name="PAGE2" id="m17QSuZfNovxnsSF852u">
    <mxGraphModel dx="1434" dy="764" grid="1" gridSize="10" guides="1" tooltips="1" connect="1" arrows="1" fold="1" page="1" pageScale="1" pageWidth="827" pageHeight="1169" math="0" shadow="0">
      <root>
        <mxCell id="zQdL1Z4vZY81CpmGs_AE-0" />
        <mxCell id="zQdL1Z4vZY81CpmGs_AE-1" parent="zQdL1Z4vZY81CpmGs_AE-0" />
        <mxCell id="zQdL1Z4vZY81CpmGs_AE-19" value="" style="verticalLabelPosition=bottom;verticalAlign=top;html=1;shape=mxgraph.basic.rect;fillColor2=none;strokeWidth=1;size=20;indent=5;fillColor=none;" vertex="1" parent="zQdL1Z4vZY81CpmGs_AE-1">
          <mxGeometry x="20" y="140" width="460" height="320" as="geometry" />
        </mxCell>
        <mxCell id="zQdL1Z4vZY81CpmGs_AE-2" value="" style="shape=table;startSize=0;container=1;collapsible=0;childLayout=tableLayout;fontSize=16;" vertex="1" parent="zQdL1Z4vZY81CpmGs_AE-1">
          <mxGeometry x="120" y="240" width="320" height="160" as="geometry" />
        </mxCell>
        <mxCell id="zQdL1Z4vZY81CpmGs_AE-3" value="" style="shape=tableRow;horizontal=0;startSize=0;swimlaneHead=0;swimlaneBody=0;strokeColor=inherit;top=0;left=0;bottom=0;right=0;collapsible=0;dropTarget=0;fillColor=none;points=[[0,0.5],[1,0.5]];portConstraint=eastwest;fontSize=16;" vertex="1" parent="zQdL1Z4vZY81CpmGs_AE-2">
          <mxGeometry width="320" height="80" as="geometry" />
        </mxCell>
        <mxCell id="zQdL1Z4vZY81CpmGs_AE-4" value="1" style="shape=partialRectangle;html=1;whiteSpace=wrap;connectable=0;strokeColor=inherit;overflow=hidden;fillColor=none;top=0;left=0;bottom=0;right=0;pointerEvents=1;fontSize=16;" vertex="1" parent="zQdL1Z4vZY81CpmGs_AE-3">
          <mxGeometry width="80" height="80" as="geometry">
            <mxRectangle width="80" height="80" as="alternateBounds" />
          </mxGeometry>
        </mxCell>
        <mxCell id="zQdL1Z4vZY81CpmGs_AE-5" value="1" style="shape=partialRectangle;html=1;whiteSpace=wrap;connectable=0;strokeColor=inherit;overflow=hidden;fillColor=none;top=0;left=0;bottom=0;right=0;pointerEvents=1;fontSize=16;" vertex="1" parent="zQdL1Z4vZY81CpmGs_AE-3">
          <mxGeometry x="80" width="81" height="80" as="geometry">
            <mxRectangle width="81" height="80" as="alternateBounds" />
          </mxGeometry>
        </mxCell>
        <mxCell id="zQdL1Z4vZY81CpmGs_AE-6" value="1" style="shape=partialRectangle;html=1;whiteSpace=wrap;connectable=0;strokeColor=inherit;overflow=hidden;fillColor=none;top=0;left=0;bottom=0;right=0;pointerEvents=1;fontSize=16;" vertex="1" parent="zQdL1Z4vZY81CpmGs_AE-3">
          <mxGeometry x="161" width="79" height="80" as="geometry">
            <mxRectangle width="79" height="80" as="alternateBounds" />
          </mxGeometry>
        </mxCell>
        <mxCell id="zQdL1Z4vZY81CpmGs_AE-7" value="" style="shape=partialRectangle;html=1;whiteSpace=wrap;connectable=0;strokeColor=inherit;overflow=hidden;fillColor=none;top=0;left=0;bottom=0;right=0;pointerEvents=1;fontSize=16;" vertex="1" parent="zQdL1Z4vZY81CpmGs_AE-3">
          <mxGeometry x="240" width="80" height="80" as="geometry">
            <mxRectangle width="80" height="80" as="alternateBounds" />
          </mxGeometry>
        </mxCell>
        <mxCell id="zQdL1Z4vZY81CpmGs_AE-8" value="" style="shape=tableRow;horizontal=0;startSize=0;swimlaneHead=0;swimlaneBody=0;strokeColor=inherit;top=0;left=0;bottom=0;right=0;collapsible=0;dropTarget=0;fillColor=none;points=[[0,0.5],[1,0.5]];portConstraint=eastwest;fontSize=16;" vertex="1" parent="zQdL1Z4vZY81CpmGs_AE-2">
          <mxGeometry y="80" width="320" height="80" as="geometry" />
        </mxCell>
        <mxCell id="zQdL1Z4vZY81CpmGs_AE-9" value="" style="shape=partialRectangle;html=1;whiteSpace=wrap;connectable=0;strokeColor=inherit;overflow=hidden;fillColor=none;top=0;left=0;bottom=0;right=0;pointerEvents=1;fontSize=16;" vertex="1" parent="zQdL1Z4vZY81CpmGs_AE-8">
          <mxGeometry width="80" height="80" as="geometry">
            <mxRectangle width="80" height="80" as="alternateBounds" />
          </mxGeometry>
        </mxCell>
        <mxCell id="zQdL1Z4vZY81CpmGs_AE-10" value="1" style="shape=partialRectangle;html=1;whiteSpace=wrap;connectable=0;strokeColor=inherit;overflow=hidden;fillColor=none;top=0;left=0;bottom=0;right=0;pointerEvents=1;fontSize=16;" vertex="1" parent="zQdL1Z4vZY81CpmGs_AE-8">
          <mxGeometry x="80" width="81" height="80" as="geometry">
            <mxRectangle width="81" height="80" as="alternateBounds" />
          </mxGeometry>
        </mxCell>
        <mxCell id="zQdL1Z4vZY81CpmGs_AE-11" value="" style="shape=partialRectangle;html=1;whiteSpace=wrap;connectable=0;strokeColor=inherit;overflow=hidden;fillColor=none;top=0;left=0;bottom=0;right=0;pointerEvents=1;fontSize=16;" vertex="1" parent="zQdL1Z4vZY81CpmGs_AE-8">
          <mxGeometry x="161" width="79" height="80" as="geometry">
            <mxRectangle width="79" height="80" as="alternateBounds" />
          </mxGeometry>
        </mxCell>
        <mxCell id="zQdL1Z4vZY81CpmGs_AE-12" style="shape=partialRectangle;html=1;whiteSpace=wrap;connectable=0;strokeColor=inherit;overflow=hidden;fillColor=none;top=0;left=0;bottom=0;right=0;pointerEvents=1;fontSize=16;" vertex="1" parent="zQdL1Z4vZY81CpmGs_AE-8">
          <mxGeometry x="240" width="80" height="80" as="geometry">
            <mxRectangle width="80" height="80" as="alternateBounds" />
          </mxGeometry>
        </mxCell>
        <mxCell id="zQdL1Z4vZY81CpmGs_AE-13" value="" style="endArrow=none;html=1;rounded=0;" edge="1" parent="zQdL1Z4vZY81CpmGs_AE-1">
          <mxGeometry width="50" height="50" relative="1" as="geometry">
            <mxPoint x="120" y="220" as="sourcePoint" />
            <mxPoint x="280" y="220" as="targetPoint" />
          </mxGeometry>
        </mxCell>
        <mxCell id="zQdL1Z4vZY81CpmGs_AE-14" value="" style="endArrow=none;html=1;rounded=0;exitX=1;exitY=1;exitDx=0;exitDy=0;" edge="1" parent="zQdL1Z4vZY81CpmGs_AE-1" source="zQdL1Z4vZY81CpmGs_AE-17">
          <mxGeometry width="50" height="50" relative="1" as="geometry">
            <mxPoint x="100" y="280" as="sourcePoint" />
            <mxPoint x="100" y="240" as="targetPoint" />
          </mxGeometry>
        </mxCell>
        <mxCell id="zQdL1Z4vZY81CpmGs_AE-15" value="" style="endArrow=none;html=1;rounded=0;" edge="1" parent="zQdL1Z4vZY81CpmGs_AE-1">
          <mxGeometry width="50" height="50" relative="1" as="geometry">
            <mxPoint x="200" y="420" as="sourcePoint" />
            <mxPoint x="360" y="420" as="targetPoint" />
          </mxGeometry>
        </mxCell>
        <mxCell id="zQdL1Z4vZY81CpmGs_AE-16" value="S1" style="text;strokeColor=none;align=center;fillColor=none;html=1;verticalAlign=middle;whiteSpace=wrap;rounded=0;" vertex="1" parent="zQdL1Z4vZY81CpmGs_AE-1">
          <mxGeometry x="170" y="180" width="60" height="30" as="geometry" />
        </mxCell>
        <mxCell id="zQdL1Z4vZY81CpmGs_AE-17" value="S2" style="text;strokeColor=none;align=center;fillColor=none;html=1;verticalAlign=middle;whiteSpace=wrap;rounded=0;" vertex="1" parent="zQdL1Z4vZY81CpmGs_AE-1">
          <mxGeometry x="40" y="250" width="60" height="70" as="geometry" />
        </mxCell>
        <mxCell id="zQdL1Z4vZY81CpmGs_AE-18" value="S3" style="text;strokeColor=none;align=center;fillColor=none;html=1;verticalAlign=middle;whiteSpace=wrap;rounded=0;" vertex="1" parent="zQdL1Z4vZY81CpmGs_AE-1">
          <mxGeometry x="250" y="430" width="60" height="30" as="geometry" />
        </mxCell>
        <mxCell id="zQdL1Z4vZY81CpmGs_AE-20" value="V2" style="text;strokeColor=#666666;align=center;fillColor=#f5f5f5;html=1;verticalAlign=middle;whiteSpace=wrap;rounded=0;fontStyle=1;fontSize=14;fontColor=#333333;" vertex="1" parent="zQdL1Z4vZY81CpmGs_AE-1">
          <mxGeometry x="30" y="160" width="60" height="30" as="geometry" />
        </mxCell>
        <mxCell id="4Tzdne8kh45QGjyC_gmj-0" value="" style="ellipse;whiteSpace=wrap;html=1;fillColor=none;dashed=1;dashPattern=8 8;strokeWidth=1;perimeterSpacing=0;opacity=60;rotation=90;" vertex="1" parent="zQdL1Z4vZY81CpmGs_AE-1">
          <mxGeometry x="170" y="280" width="150" height="80" as="geometry" />
        </mxCell>
        <mxCell id="4Tzdne8kh45QGjyC_gmj-2" value="" style="ellipse;whiteSpace=wrap;html=1;fillColor=none;dashed=1;dashPattern=8 8;strokeWidth=1;perimeterSpacing=0;opacity=60;" vertex="1" parent="zQdL1Z4vZY81CpmGs_AE-1">
          <mxGeometry x="125" y="240" width="150" height="80" as="geometry" />
        </mxCell>
        <mxCell id="4Tzdne8kh45QGjyC_gmj-3" value="" style="ellipse;whiteSpace=wrap;html=1;fillColor=none;dashed=1;dashPattern=8 8;strokeWidth=1;perimeterSpacing=0;opacity=60;" vertex="1" parent="zQdL1Z4vZY81CpmGs_AE-1">
          <mxGeometry x="220" y="240" width="150" height="80" as="geometry" />
        </mxCell>
      </root>
    </mxGraphModel>
  </diagram>
  <diagram name="Page-1" id="1wr5s6wkPmQVYr-oqGSK">
    <mxGraphModel dx="989" dy="527" grid="1" gridSize="10" guides="1" tooltips="1" connect="1" arrows="1" fold="1" page="1" pageScale="1" pageWidth="827" pageHeight="1169" math="0" shadow="0">
      <root>
        <mxCell id="0" />
        <mxCell id="1" parent="0" />
        <mxCell id="5gJM0JyYO3eOrcSxypHC-1" value="" style="shape=table;startSize=0;container=1;collapsible=0;childLayout=tableLayout;fontSize=16;" vertex="1" parent="1">
          <mxGeometry x="120" y="240" width="320" height="160" as="geometry" />
        </mxCell>
        <mxCell id="5gJM0JyYO3eOrcSxypHC-2" value="" style="shape=tableRow;horizontal=0;startSize=0;swimlaneHead=0;swimlaneBody=0;strokeColor=inherit;top=0;left=0;bottom=0;right=0;collapsible=0;dropTarget=0;fillColor=none;points=[[0,0.5],[1,0.5]];portConstraint=eastwest;fontSize=16;" vertex="1" parent="5gJM0JyYO3eOrcSxypHC-1">
          <mxGeometry width="320" height="80" as="geometry" />
        </mxCell>
        <mxCell id="5gJM0JyYO3eOrcSxypHC-3" value="" style="shape=partialRectangle;html=1;whiteSpace=wrap;connectable=0;strokeColor=inherit;overflow=hidden;fillColor=none;top=0;left=0;bottom=0;right=0;pointerEvents=1;fontSize=16;" vertex="1" parent="5gJM0JyYO3eOrcSxypHC-2">
          <mxGeometry width="80" height="80" as="geometry">
            <mxRectangle width="80" height="80" as="alternateBounds" />
          </mxGeometry>
        </mxCell>
        <mxCell id="5gJM0JyYO3eOrcSxypHC-4" value="1" style="shape=partialRectangle;html=1;whiteSpace=wrap;connectable=0;strokeColor=inherit;overflow=hidden;fillColor=none;top=0;left=0;bottom=0;right=0;pointerEvents=1;fontSize=16;" vertex="1" parent="5gJM0JyYO3eOrcSxypHC-2">
          <mxGeometry x="80" width="81" height="80" as="geometry">
            <mxRectangle width="81" height="80" as="alternateBounds" />
          </mxGeometry>
        </mxCell>
        <mxCell id="5gJM0JyYO3eOrcSxypHC-5" value="" style="shape=partialRectangle;html=1;whiteSpace=wrap;connectable=0;strokeColor=inherit;overflow=hidden;fillColor=none;top=0;left=0;bottom=0;right=0;pointerEvents=1;fontSize=16;" vertex="1" parent="5gJM0JyYO3eOrcSxypHC-2">
          <mxGeometry x="161" width="79" height="80" as="geometry">
            <mxRectangle width="79" height="80" as="alternateBounds" />
          </mxGeometry>
        </mxCell>
        <mxCell id="5gJM0JyYO3eOrcSxypHC-76" value="1" style="shape=partialRectangle;html=1;whiteSpace=wrap;connectable=0;strokeColor=inherit;overflow=hidden;fillColor=none;top=0;left=0;bottom=0;right=0;pointerEvents=1;fontSize=16;" vertex="1" parent="5gJM0JyYO3eOrcSxypHC-2">
          <mxGeometry x="240" width="80" height="80" as="geometry">
            <mxRectangle width="80" height="80" as="alternateBounds" />
          </mxGeometry>
        </mxCell>
        <mxCell id="5gJM0JyYO3eOrcSxypHC-40" value="" style="shape=tableRow;horizontal=0;startSize=0;swimlaneHead=0;swimlaneBody=0;strokeColor=inherit;top=0;left=0;bottom=0;right=0;collapsible=0;dropTarget=0;fillColor=none;points=[[0,0.5],[1,0.5]];portConstraint=eastwest;fontSize=16;" vertex="1" parent="5gJM0JyYO3eOrcSxypHC-1">
          <mxGeometry y="80" width="320" height="80" as="geometry" />
        </mxCell>
        <mxCell id="5gJM0JyYO3eOrcSxypHC-41" value="1" style="shape=partialRectangle;html=1;whiteSpace=wrap;connectable=0;strokeColor=inherit;overflow=hidden;fillColor=none;top=0;left=0;bottom=0;right=0;pointerEvents=1;fontSize=16;" vertex="1" parent="5gJM0JyYO3eOrcSxypHC-40">
          <mxGeometry width="80" height="80" as="geometry">
            <mxRectangle width="80" height="80" as="alternateBounds" />
          </mxGeometry>
        </mxCell>
        <mxCell id="5gJM0JyYO3eOrcSxypHC-42" value="" style="shape=partialRectangle;html=1;whiteSpace=wrap;connectable=0;strokeColor=inherit;overflow=hidden;fillColor=none;top=0;left=0;bottom=0;right=0;pointerEvents=1;fontSize=16;" vertex="1" parent="5gJM0JyYO3eOrcSxypHC-40">
          <mxGeometry x="80" width="81" height="80" as="geometry">
            <mxRectangle width="81" height="80" as="alternateBounds" />
          </mxGeometry>
        </mxCell>
        <mxCell id="5gJM0JyYO3eOrcSxypHC-43" value="1" style="shape=partialRectangle;html=1;whiteSpace=wrap;connectable=0;strokeColor=inherit;overflow=hidden;fillColor=none;top=0;left=0;bottom=0;right=0;pointerEvents=1;fontSize=16;" vertex="1" parent="5gJM0JyYO3eOrcSxypHC-40">
          <mxGeometry x="161" width="79" height="80" as="geometry">
            <mxRectangle width="79" height="80" as="alternateBounds" />
          </mxGeometry>
        </mxCell>
        <mxCell id="5gJM0JyYO3eOrcSxypHC-77" style="shape=partialRectangle;html=1;whiteSpace=wrap;connectable=0;strokeColor=inherit;overflow=hidden;fillColor=none;top=0;left=0;bottom=0;right=0;pointerEvents=1;fontSize=16;" vertex="1" parent="5gJM0JyYO3eOrcSxypHC-40">
          <mxGeometry x="240" width="80" height="80" as="geometry">
            <mxRectangle width="80" height="80" as="alternateBounds" />
          </mxGeometry>
        </mxCell>
        <mxCell id="5gJM0JyYO3eOrcSxypHC-78" value="" style="endArrow=none;html=1;rounded=0;" edge="1" parent="1">
          <mxGeometry width="50" height="50" relative="1" as="geometry">
            <mxPoint x="120" y="220" as="sourcePoint" />
            <mxPoint x="280" y="220" as="targetPoint" />
          </mxGeometry>
        </mxCell>
        <mxCell id="5gJM0JyYO3eOrcSxypHC-79" value="" style="endArrow=none;html=1;rounded=0;exitX=1;exitY=1;exitDx=0;exitDy=0;" edge="1" parent="1" source="5gJM0JyYO3eOrcSxypHC-84">
          <mxGeometry width="50" height="50" relative="1" as="geometry">
            <mxPoint x="100" y="280" as="sourcePoint" />
            <mxPoint x="100" y="240" as="targetPoint" />
          </mxGeometry>
        </mxCell>
        <mxCell id="5gJM0JyYO3eOrcSxypHC-80" value="" style="endArrow=none;html=1;rounded=0;" edge="1" parent="1">
          <mxGeometry width="50" height="50" relative="1" as="geometry">
            <mxPoint x="200" y="420" as="sourcePoint" />
            <mxPoint x="360" y="420" as="targetPoint" />
          </mxGeometry>
        </mxCell>
        <mxCell id="5gJM0JyYO3eOrcSxypHC-83" value="S1" style="text;strokeColor=none;align=center;fillColor=none;html=1;verticalAlign=middle;whiteSpace=wrap;rounded=0;" vertex="1" parent="1">
          <mxGeometry x="170" y="180" width="60" height="30" as="geometry" />
        </mxCell>
        <mxCell id="5gJM0JyYO3eOrcSxypHC-84" value="S2" style="text;strokeColor=none;align=center;fillColor=none;html=1;verticalAlign=middle;whiteSpace=wrap;rounded=0;" vertex="1" parent="1">
          <mxGeometry x="40" y="250" width="60" height="70" as="geometry" />
        </mxCell>
        <mxCell id="5gJM0JyYO3eOrcSxypHC-85" value="S3" style="text;strokeColor=none;align=center;fillColor=none;html=1;verticalAlign=middle;whiteSpace=wrap;rounded=0;" vertex="1" parent="1">
          <mxGeometry x="250" y="430" width="60" height="30" as="geometry" />
        </mxCell>
        <mxCell id="5gJM0JyYO3eOrcSxypHC-86" value="" style="verticalLabelPosition=bottom;verticalAlign=top;html=1;shape=mxgraph.basic.rect;fillColor2=none;strokeWidth=1;size=20;indent=5;fillColor=none;" vertex="1" parent="1">
          <mxGeometry x="20" y="140" width="460" height="320" as="geometry" />
        </mxCell>
        <mxCell id="5gJM0JyYO3eOrcSxypHC-87" value="V1" style="text;strokeColor=#666666;align=center;fillColor=#f5f5f5;html=1;verticalAlign=middle;whiteSpace=wrap;rounded=0;fontStyle=1;fontSize=14;fontColor=#333333;" vertex="1" parent="1">
          <mxGeometry x="30" y="160" width="60" height="30" as="geometry" />
        </mxCell>
      </root>
    </mxGraphModel>
  </diagram>
</mxfile>
